<?xml version="1.0" standalone="no"?>
<!DOCTYPE svg PUBLIC "-//W3C//DTD SVG 20010904//EN"
 "http://www.w3.org/TR/2001/REC-SVG-20010904/DTD/svg10.dtd">
<svg version="1.0" xmlns="http://www.w3.org/2000/svg"
 width="260.000000pt" height="260.000000pt" viewBox="0 0 260.000000 260.000000"
 preserveAspectRatio="xMidYMid meet">
<metadata>
Created by potrace 1.11, written by Peter Selinger 2001-2013
</metadata>
<g transform="translate(0.000000,260.000000) scale(0.100000,-0.100000)"
fill="#000000" stroke="none">
<path d="M0 1300 l0 -1300 1300 0 1300 0 0 1300 0 1300 -1300 0 -1300 0 0
-1300z m1811 265 c24 -9 60 -29 79 -45 l35 -30 -25 -20 c-14 -12 -42 -30 -62
-41 -34 -17 -38 -23 -38 -60 0 -37 1 -39 21 -29 48 26 119 -22 119 -82 0 -70
-34 -97 -122 -96 l-68 2 0 117 0 118 -37 7 c-38 7 -113 67 -113 90 0 15 53 58
90 73 36 14 71 13 121 -4z m-1181 -270 l0 -135 -25 0 -25 0 0 135 0 135 25 0
25 0 0 -135z m470 63 l0 -72 28 27 c17 16 39 27 56 27 l28 0 -30 -38 -30 -38
34 -47 c19 -26 34 -49 34 -52 0 -3 -12 -5 -27 -5 -21 0 -34 9 -51 36 -26 39
-42 37 -42 -7 0 -24 -4 -29 -25 -29 l-25 0 0 135 0 135 25 0 c24 0 25 -2 25
-72z m420 -63 l0 -135 -25 0 c-14 0 -25 5 -25 12 0 9 -3 9 -12 0 -17 -17 -69
-15 -95 3 -12 8 -27 31 -33 50 -23 71 44 143 111 118 l29 -11 0 49 c0 46 2 49
25 49 l25 0 0 -135z m-225 100 c0 -13 -8 -21 -22 -23 -19 -3 -23 1 -23 23 0
22 4 26 23 23 14 -2 22 -10 22 -23z m720 0 c0 -23 -34 -33 -45 -14 -13 20 1
40 24 37 13 -2 21 -10 21 -23z m-1005 -71 c13 -13 13 -16 1 -23 -8 -5 -28 -7
-46 -4 -38 6 -58 -14 -53 -53 4 -37 31 -53 59 -36 18 12 24 11 37 -2 15 -14
14 -17 -3 -31 -74 -55 -179 43 -135 125 25 47 104 60 140 24z m-300 -36 c0
-64 10 -81 41 -76 22 3 24 8 27 66 3 58 4 62 27 62 25 0 25 -1 25 -90 l0 -90
-66 4 c-86 5 -97 16 -102 106 -4 70 -4 70 22 70 25 0 26 -3 26 -52z m590 -38
c0 -89 0 -90 -25 -90 -25 0 -25 1 -25 90 0 89 0 90 25 90 25 0 25 -1 25 -90z
m302 28 c3 -60 4 -63 28 -63 24 0 25 3 28 63 3 58 4 62 27 62 25 0 25 -1 25
-89 l0 -90 -59 3 c-85 3 -101 20 -101 108 0 66 1 68 25 68 23 0 24 -4 27 -62z
m418 -28 c0 -89 0 -90 -25 -90 -25 0 -25 1 -25 90 0 89 0 90 25 90 25 0 25 -1
25 -90z"/>
<path d="M1812 1288 c-34 -34 2 -98 48 -83 24 7 37 51 23 74 -13 20 -54 26
-71 9z"/>
<path d="M1386 1284 c-21 -21 -20 -40 4 -64 27 -27 46 -25 66 5 34 52 -27 103
-70 59z"/>
</g>
</svg>
